/* XPM */
static char *e374f9bd6d2a46db9510996a1e34f18eb8SBqVmyUesogIUE[] = {
/* columns rows colors chars-per-pixel */
"64 64 128 2 ",
"   c #1F0E05",
".  c #1C1008",
"X  c #251105",
"o  c #2C1506",
"O  c #24160D",
"+  c #2B170A",
"@  c #2D190C",
"#  c #351907",
"$  c #3B1B07",
"%  c #341B0C",
"&  c #3C1E0A",
"*  c #251710",
"=  c #251910",
"-  c #2B1C12",
";  c #311F12",
":  c #3D210E",
">  c #2F2015",
",  c #342216",
"<  c #3E2212",
"1  c #39251A",
"2  c #401E07",
"3  c #411F09",
"4  c #45210B",
"5  c #4C250C",
"6  c #4F280E",
"7  c #50270C",
"8  c #54290D",
"9  c #5B2D0E",
"0  c #442511",
"q  c #452916",
"w  c #4E2A12",
"e  c #542C12",
"r  c #5B2E11",
"t  c #5D3115",
"y  c #602F0F",
"u  c #62300F",
"i  c #612F10",
"p  c #643312",
"a  c #6E3712",
"s  c #653A17",
"d  c #6E3815",
"f  c #643618",
"g  c #67391A",
"h  c #6C3B1A",
"j  c #703712",
"k  c #733A14",
"l  c #783E17",
"z  c #733E1B",
"x  c #7A3F18",
"c  c #6E401A",
"v  c #794017",
"b  c #75411D",
"n  c #7C421B",
"m  c #75481D",
"M  c #7A481F",
"N  c #7E4520",
"B  c #7F4920",
"V  c #82451D",
"C  c #86491E",
"Z  c #88491F",
"A  c #814720",
"S  c #844A22",
"D  c #8C4C22",
"F  c #914F23",
"G  c #8E5222",
"H  c #935024",
"J  c #915026",
"K  c #935226",
"L  c #945124",
"P  c #965225",
"I  c #965226",
"U  c #965327",
"Y  c #955525",
"T  c #965727",
"R  c #985326",
"E  c #985427",
"W  c #995427",
"Q  c #9A5527",
"!  c #955926",
"~  c #985A24",
"^  c #9A5A26",
"/  c #9A5C25",
"(  c #9F5F27",
")  c #9A5528",
"_  c #9B5528",
"`  c #9C5628",
"'  c #9C5629",
"]  c #9C5729",
"[  c #9D5729",
"{  c #9E5829",
"}  c #9E582A",
"|  c #9E592A",
" . c #9F5A2A",
".. c #A05A2A",
"X. c #A05B2A",
"o. c #A15C2A",
"O. c #A25C2A",
"+. c #A25D2B",
"@. c #9C6129",
"#. c #A16128",
"$. c #A4632B",
"%. c #A7622B",
"&. c #A7652A",
"*. c #A7652B",
"=. c #A7662A",
"-. c #A6612C",
";. c #A7622C",
":. c #A7642C",
">. c #A9642C",
",. c #AA652D",
"<. c #A9672C",
"1. c #AA662C",
"2. c #AB692D",
"3. c #AC682E",
"4. c #AD692E",
"5. c #AE6A2E",
"6. c #AF6C2D",
"7. c #B06B2E",
"8. c #B06C2E",
"9. c #B16D2E",
"0. c #B26E2F",
"q. c #B36E2F",
"w. c #B3702F",
"e. c #B4702F",
"r. c #B36F30",
"t. c #B46F30",
"y. c #B47030",
"u. c #B57130",
/* pixels */
"0.S f ( e.v a v Q Q h 5.+.} } ] ] V V ] x N -.0.T a V F ] ] ] D e ] ;.t.t.t.V k V ) F w q m &.&.P C } } Z n j l G 0.&.V b G F P ",
"C V 6 ] 0.~ / 0.] b &.X.) H Q } D j k F h ) *.@.a a a a k &.;.] z a F 5.y.;.] ) F r e F 5.-.Q l a V { } ] X.R Z a l #.C D e a a ",
"j 8 N ] %.0.5.X.} b &.F k a k l j a k p ) } V a a j j j F 0.0.] ] e j ) -.] ] ] e y D ] +.} E z j Q Q ] ] 7.0.5.F l a a D H 7 a ",
"5 6 v H ] } ] } Q D t j j a a a j j r M } x k d a a k l X.y.y.5.] g a l F R D d j j P ] } ) } ) P ` { } ~ +.5.q.%.Q F Q } H 9 9 ",
"4 p j j V R } D k j 8 u a a a p r i 5 f R V P P F C n n %.e.q.7.X.b y j a j j 5 j j ..D ..R ] ..] } } Z l n Q +.X.] { } D d 4 5 ",
"T 6 j j a j l j j j p 5 a 6 h M A A S N V X.` ` } Q ] ] +.7.0.%.] Q 5 8 9 7 3 & j j V P F l V F H V j a k j j Z R P D l a 5 e c ",
"&.b 8 j j a j a a j j $ f P ] 7.5...] ] p F ` X.] ] ] ] Q F V Z ] F 3 f M F V 4 j j D P F ] V j a a v D } v j a k j a a 4 a E 2.",
"&.V z u a j a j j a p r ] ] } q.t.;.] ..z k F X.] P Z l j j j j l j o F ,.q.T 8 3 3 p l k R V j a Z } ` P j a j j j a 4 p j z D ",
"#.k ) t a j a a a 9 + M ..] O.t.w.,.} Q H 7 a l v j j j j a u 8 y & - a &.t.P a a a 5 $ 8 k k j a x X.R k a a a a 8 e e 8 a j a ",
"} D +.) e p a p e p h M ] ] O.t.0.,.} } ] p 5 p j j j j u : t a X r & a F t.X.Z Z Z Z a y 5 y j j x ] x a a a 6 m @.e.0.c p a j ",
") } r.r.U h & 0 &.j l b ..] ..X.] T Q R Z k a 4 & 8 8 $ 4 Z 5.] e F b x x ,.+.] ] ] ] l Z 7 5 8 p j n p r 4 = G q.H &.e.*.7 a a ",
"V ) -.t.+.] g b 5.n T h ' ] ] R l a j j a u 4 s ! D C ! &.0.%.z A S D ] D ....] ] P n j t p F Z p 3 w N G G < &.Q j H / H 8 # a ",
"a x D ] ] ) R g 7.r.3.h k F R l a j a a 5 8 C 0.e.&.%.;.X.] Q f ] D k ) } ) ] R l j 8 5 M +.q.y.3.b D x ] X.f ) } R } D j 8 w t ",
"j a a v l j E g ] 5.+.V 3 j j j j a j p 8 j ~ %.+.~ ] ] ` ` g } r.+.6 x ) } ] D a 9 9 j D 3.7.3...h T ] ] ] r j P ] V a a f } } ",
"j a j a d j x r V P D j 8 $ p j a a a p # j a l F ` R Z n f D q.t.;.e a x D V a y o r p k V n j j 3 l V D V a 5 u k a a e k D ] ",
"r j a j j j j $ a a j j p % 5 3 5 7 8 4 @ u j j j k a j 7 p X.0.t.] A r a a a 7 f D ;.A y j j y r r p j a j j 9 @ a a 8 p a a v ",
"b 9 a j a j a   y j j j 8 a j j a a a p : % 7 a j a j 8 9 j Z X.%.} Q f 9 u r 5 D P 0.%.4 w g P ,.X.e j a a i f h 0 w # a a V ) ",
"j & j a j p 3 8 2 y y 7 9 F #.Q ! o.%.%.5 t G f p j 9 & a a j Z Z n l j p 4 p a 9 6 d z 8 P 7.y.t.y.o.9 a e v -.#.+.] F b 7 k D ",
"a o 4 7 5 7 a k r % 9 k ~ t.0.7.5.&.-.A u G y.-.V g z b 7 p j j j j a a j 5 d a a a a p T 0.t.0.0.~ D g r P } 5.y.y.y.r.5.! r p ",
"3 a a a k V P F 7 a v -.y.5.] ] ] Q z p k &.y.-.] ] } ~ Q w 9 j a j a a a # 4 a a a u a V ( X.l k j j p H P Z D U -.t.r.t.w.+.D ",
"n } +.-.] ] ] P 8 j F 5.%.] X.F P r 9 9 8 S G g b A h e r 8 7 9 u y 9 e f ( %.t 4 e z t k Q V j a a j p k k j j j j l D } #.X.] ",
"C *.6.,.P P ] U e j k D F V l p 4 p n k a q - 7 a a a D V a k u u a d A ;.t.+.V v ] A e R n a a a j j p p a a u a a a a d j x x ",
"y.w.t.,.x k n ] f j j a a y 4 7 V Q } F z 0 g 9 Q w.e.e.] l n Z F ) ) t X.;.X.R ] ] R e Q R D j j j a 9 9 w 5 f b e 3 4 2 7 8 7 ",
"w.w.t.P a a a P D # 9 r 1 - b ( 0.q.5.Q r D P 9 } y.y.q.%.Q +.;.+.#.} b z V D ] ] P l 4 ] ,.P n j a a 5 7 k F } +.A p j j p y D ",
"0.y.0.n j a a V } e 8 8 r 4 A ,.t.5.] b y D R 8 Z ,.0.y.5.-.q.y.y.y.+.P 8 j k P n j 4 n 7.t.;.] ) F D t D } -.7.0.) e V a k P ,.",
"Q -.H j a j j k Q M y a a a r +.5.] F 7 j V ] p j Q %.,.-.q.y.y.y.y.%.T 5 j a a j r e V 7.y.7.] ] ) V p +.0.y.t.5.D b +.} ~ y.y.",
"k C k j j j a k ) P 7 k D V 8 b R D 0 8 j l X.z u l } } Q ] X.;.5.,.+.} : 8 a 8 h R y V R +.] ) D l 5 a +.0.7.5.o.g } &.0.w.0.+.",
"p j a j j j j P X.P 4 l +.] V 9 X 7 j 5 j k ` R 7 a k l x j j k n D F D - % g H +.] r j k l k k a 4 O p R ] F V r k F ` } +.) D ",
"3 a a a a a j j x p 8 l 5.5.Q a 3 ) -.w a k ` X.V 8 j j j a j a j a j A w q -.y.7.] k p j j j r @ e t d n k j j $ 8 a V P D k j ",
"S 7 a a a a j j 7 4 a ~ q.7.] z ! y.y.b p a n v k 7 p j a j a a a j a a e H +.7.X.R p r j j 7 + ; D b d j y r h S t a a a a j a ",
"] P e a j j p 4 9 V X.q.e.,.A S y.y.t.D + p a a a j 4 8 j a a a j a a a 9 ] } } ` l p 5 8 $ M D z ] D r r M } +.-.) 6 a a a 9 g ",
"C F D $ 9 5 5 a V ] X.7.,.A b 5.y.5.} H - 0 u k k 9 3 O & a a a j a a a 7 Z V n l j j y 8 f ] S A ] D 0 P 5.0.y.e.} ; : 8 7 D } ",
"j j j 4   p a j a j l F P z ] 5.,.P n D = 3 3 4 7 d P N ; + 5 6 4 5 5 & # j j j a a a 9 h X.5.G p H p N ] 5.e.0.,.P < B ( *.7.,.",
"j j 8 7 j 8 8 j j j j j p n ] ] D k a d 9 j j k A U X.] D g V a j a j j 7 9 j j a a p t %.0.y.H 9 a 7 T ) +.+.} ] z H r.y.y.y.} ",
"4 4 p j j j p 8 9 a j j 8 p l n j j p 7 j a l Q X.5.7.;.+.g P F C l l n R S r a a p # D q.t.5.) 7 a 7 V D V v v k z 2.y.q.7.H b ",
"9 j l F F l j j p 7 9 p 7 7 a j y 9 4 C k a n ] 3.r.y.y.} F M ,.0.+.] ] ] ] P 3 e N F r ~ 7.r.,.z p 8 a a j k a 7 P +.r.%.V y w ",
"n P 5.5.+.] F x j j p e b u 4 8 & - a ] V a l } 0.q.q.q.) } S y.e.q.] V D ] ] f ) +.P 9 l ] 0.e.+.t r a a a a a e F ) P l 8 9 V ",
"X.q.e.0.,.] X.] ] D f } 0.,.F ` S @ v } V a j R +.3.q.7.} } V } +.,.R j a l P z ] X.z k C } w.e.y.-.z 8 a a a 6 a a k a 7 9 D ] ",
"5.y.e.e.X.R ] ] ] z D 5.e.,.] ] Q e V X.V a j R ] ] X.X.] ) p j R Q l a a j p A C n 8 a l P } &.0.r.,.P h 7 t t r p r # u a R ] ",
"G 5.7.7.R l V D z y l &.7.F V P ] h i V l a j l R ] R ] } ) & a j l j a j p 9 F a k 7 a a j l V D } } } D N 5.5.R A t , 9 j l n ",
"7 F ] R l j a u @ p a x z j a R ] ) z 7 a j j j k V j l P D 4 & a a a a e + d k a a 3 8 a a a a j k V V g ] +.] ] ] P f 3 a a a ",
"8 a n l j a 8 O & 6 a a j j k Q F F F z 4 p j j j j a p 8 9 a a 5 5 w # ; % p a p 4 & 7 a a a a a a a j z R V j x x a e e M z p ",
"V e t y 8 s D : j p 6 a a j j j j p 7 3 4 9 7 4 4 7 5 7 a a j a j a a . n R 5 5 8 g f D 8 5 p a j a p 9 k j a a y r M #.y.y.+.} ",
"V ) D D &.e.0.h a D G 8 9 p u 8 4 3 i a j V ] N y j j a a a a j k j p e ] ] D V D } h ) V a 9 7 7 5 8 8 8 p r f S +.7.t.0.;.) P ",
"j V +.5.y.y.y.T u a T &.A z p a 8 a j j V ,.5.e j a j k x x x D D a a f P +.2.*.( } b H } n a j l l l j 8 9 l D D D D D Z n j j ",
"a a D ,.0.e.7.P u Z e.w.*.] P V e j j Z ] 5.y.b 9 a D Q X.-.7.r.,.n k 8 D +.r.5.+.} c 5.5.] F Q X.5.] n y f a a j j j j j j a a ",
"4 a j Z ] Q V e p Q 0.r.5.) Q ] e a D ` ,.+.y.} r a F 7.y.y.y.y.5.] D p a l D P P P S e.0.} ] %.y.t.] b r x 5 8 y u i 8 7 7 e b ",
"@ y a a l a 9 5 j n R R Z z j D g a F +.q.] X.] D 8 D X.;.0.,.X.} } V a a a j a a t w.e.,.] } 0.y.5.} p V ] R M k l 3 p a l Z D ",
"y 4 u j a p t t p j a j a a j a 4 d F ] ;...F n ] N A D h h F P ] F f 7 j j a a 9 M q.q.+.P P X.t.+.X.e a l R ] ] R r z r e 7 p ",
"a H b a a f 2.2.p a a a a 9 5 @ & d U ] F V V j x ] r 7 p a 7 r a 7 @ # 9 i 8 7 5 l X.] D j V ] ) D x & j j l F ] z F ,.3.;.) f ",
"v 5.e.c 5 P y.y.H w p 9 h n V a & d x F n j j j j n N A R F j 6 h D ) D i 8 u j 7 j V V a j l F n p - - o 8 p j h p ..+.y.q.;.Q ",
"a C 5.5.R M q.q.-.e @ S ] ] } ) D 5 a j j j d j a a e ] 5.] l 7 P -.7.] R D F R z y j j j j a a 5 e h D V p 9 8 3 8 D X.5.;.] ] ",
"a a V ] ] M R R V f P ] ] %.5.+...P r j a a a j u p ( r.-.} b t 8 V ) ] ] ..] +.] 7 j j a j u g ) ,.y.5.r.] D D Q r k V Z F D l ",
"t a j Z ] D D V j f ] ] +.e.e.0.+.+.D r a a d 5 g ) 0.e.+.M A Z d e j D ] ] +.t.%.F r j k 8 t ] ] 5.y.t.r.r.] ] ] A 9 j j a a 8 ",
"H 8 k C ] b D ` F b F ] X.5.e.e.t.+.] 3 4 4 * & a n P T l h P j a V t a V ] 5.y.r.2.z + < # 5 V U ] +.5.-.X.] ] ] ] g 8 j y 5 p ",
"k 8 a T R 8 F ] ] P 9 l D ) %.7.+.] D 8 p N z 3 a a a a a z D a a a D e j D X.r.y.+.n 1 < j 8 y j x D ] ] ] ] R ] ] S e 8 u j V ",
"a 7 j D b r k k l V + 5 a k V D R D 8 x V P O.D r j a j j k F j a a l V p j P X.#.F t e b { n 4 a a a l D V j k R D p i V D D O.",
"5 5 a 8 w w r a j 7 D D 7 a j a j j 8 F ] ] +.+.n 3 a j a d ] l a j x Q r a k n a p 7 F +.e.] k & a a a a j j a j j 3 n ] ] ] t.",
"9 p b P +.] R A t f Z C z 4 p a j p r ] F F +.O.f D h f r e V ] F V V n 4 5 8 5 4 7 9 k D &.+.` e 5 a a a a a a a 3 d ) 5.e.t.q.",
"a D 3.r.~ k l R P f j k M ] h 8 9 - n ] l V ] D A r.X.] ] t a V V k j 8 j p p j k F p k k X.` ] f H t 8 u a d a 4 x ) 5.q.y.q.+.",
"a P -.] D n n D ) t a p -.0.;.D g , z ] x x ] b U r.+.F ] M y a a a a f F j j V <.+.r a l F D n b +.5.@.g 4 9 # S ] } 5.y.y.7.F ",
"a P ] ] } 5.y.0.] N p p X.5.0.X.] F t X.V V ] z ) F x d n P e a a a 4 P ] l V 5.e.o.7 k a a a 4 a n D ~ ] P h 1 e Z } } ;.y.+.h ",
"j j x F +.t.y.y.+.P 3 a Z ] ] ] ] R b F Z j P f x j a a a l D 5 5 o u Z ] } X.t.q.S y a a j 8 8 a j j j l A F g 4 j v Z Z P P p ",
"j j j j x F +.} ) h 4 j j n R R n j 7 a D j j 5 p a a a a a a 5 a u 9 j k v D #.R V 8 j a a 4 a j a j j a a k D 5 j j j j j j j "
};
