/* XPM */
static char *_62696e4fd8f45ceeaf2c414c6158e5dLWzLGqCnPpXBvmdN[] = {
/* columns rows colors chars-per-pixel */
"64 64 105 2 ",
"   c #2F1B1F",
".  c #351B1F",
"X  c #3A1B1E",
"o  c #221A21",
"O  c #2B1A20",
"+  c #311B20",
"@  c #431B1D",
"#  c #4C1C1D",
"$  c #541C1C",
"%  c #5B1D1B",
"&  c #631E1B",
"*  c #6A1F1B",
"=  c #791519",
"-  c #721C1A",
";  c #7F1F1B",
":  c #65211B",
">  c #6D211B",
",  c #6B2B1D",
"<  c #74211A",
"1  c #7A221A",
"2  c #742C1E",
"3  c #7C2A1D",
"4  c #75371B",
"5  c #7A331B",
"6  c #7C3B1C",
"7  c #7D3422",
"8  c #7B471E",
"9  c #724A1E",
"0  c #7D6222",
"q  c #80271C",
"w  c #842B1D",
"e  c #8A2E1E",
"r  c #83301F",
"t  c #8E311F",
"y  c #883E1F",
"u  c #90321F",
"i  c #853421",
"p  c #8C3421",
"a  c #873923",
"s  c #8D3C23",
"d  c #933E25",
"f  c #82471E",
"g  c #8D4023",
"h  c #8F4924",
"j  c #954126",
"k  c #984327",
"l  c #904925",
"z  c #994628",
"x  c #865421",
"c  c #8A5123",
"v  c #895F26",
"b  c #886F24",
"n  c #966427",
"m  c #916C26",
"M  c #946D2A",
"N  c #99692B",
"B  c #857E27",
"V  c #8B7A27",
"C  c #8F7228",
"Z  c #8C7D29",
"A  c #9A722B",
"S  c #937C2A",
"D  c #9A7A2C",
"F  c #8F8229",
"G  c #8E8A2A",
"H  c #93852A",
"J  c #99832A",
"K  c #928B2B",
"L  c #9B8D2C",
"P  c #95922C",
"I  c #9E942F",
"U  c #9B9D2F",
"Y  c #A09630",
"T  c #A19C31",
"R  c #9DA230",
"E  c #A2A231",
"W  c #A8A532",
"Q  c #A6AC33",
"!  c #AAAC34",
"~  c #AAB335",
"^  c #ACB336",
"/  c #ABB435",
"(  c #AEB736",
")  c #B1B636",
"_  c #B4B737",
"`  c #B1BA37",
"'  c #B2BC37",
"]  c #B2BC38",
"[  c #B4BE38",
"{  c #B5C038",
"}  c #B7C139",
"|  c #B8C33A",
" . c #BAC33A",
".. c #B8C439",
"X. c #BAC43A",
"o. c #BCC73B",
"O. c #BECA3B",
"+. c #BECA3C",
"@. c #BFCB3C",
"#. c #C0CB3C",
"$. c #C1CC3C",
"%. c #C2CE3C",
"&. c #C3CE3D",
"*. c #C4D03D",
"=. c #C6D23E",
/* pixels */
"=.=.=.$.*.*.*.=.=.=.=.=.=.=.=.=.=.&.=.=.=.=.=.=.=.=.=.&.=.&.=.=.=.=.=.=.=.=.$.=.=.=.=.=.=.=.=.=.=.$.=.=.=.=.=.=.=.=.=.=.=.$.=.=.",
"=.=.=.$.+.+.+.+.$.$.$.$.$.*.$.@.#.#.#.#.#.#.O.o.O.#.$.O.&.$.$.$.O.#.O.O.O.$.O.#.=.+.#.#.#.O.+.+.=.#.$.$.$.$.$.$.O.#.$.O.O.O.#.=.",
"=.=.=.=.=.=.*.=.=.=.=.=.=.=.=.=.=.=.&.$.=.=.=.=.=.=.=.=.=.=.=.=.=.=.=.=.=.=.=.=.=.=.=.=.=.=.=.=.=.=.=.=.=.=.=.=.=.=.=.=.=.=.=.$.",
"| +.=.=.O.=.X.X.$.@.+.*.@.....*.&.&.#.| #.O.#.#.+.+.$.$.=.=.$. .X.#.$.$.O.$.=.=.O.} #.=.O.O.X.O.*.=.$.@.$.=.$.$.#.&.#.o.$.X.` X.",
"! X.#.} o.X.P } ` [ T Q o.I Z X.^ | H L Q X.' R Q Q ) | | o.| Q m ~ X.[ E ( X.[ ! S ` } ( Y ] / ..} ( ' R R | [ Q X.' H _ X.J x ",
"S W J c ) L 1 B v J x C R g 2 V y G 2 s p n Z = x g c L M Y N z r 4 H b q 6 V 9 5 - 0 K c r 6 , U F 8 H 1 s T N j D D d 8 M n z ",
"< : 1 1 f 2 < h p 1 3 y 3 1 - 1 3 6 - & 1 1 - 1 < w p d d l d d i - 1 1 1 1 1 & 1 1 - ; 1 1 1 * * < % 3 s d d d d t s s < 1 1 1 ",
"< , 3 5 j r > 1 1 1 1 1 1 1 > < 1 1 1 & 1 1 * : < 1 1 1 1 1 1 1 > < 1 1 < < - & 1 1 < 1 1 1 1 3 p 7 2 > < 1 1 q 1 < 1 < > 1 1 w ",
"i z d i 1 1 & & 1 1 1 1 1 1 < < 1 1 1 & < 1 & & & 1 1 1 1 < 1 1 & 1 1 < & * & & < 1 < < 1 1 < < 1 q j k s > 1 1 1 1 < % 2 a a w ",
"p 1 1 1 1 1 < % & 1 < < * < & & < 1 1 < % % & 1 < & > < 1 * 1 1 % * * % * 1 1 < - 1 < & 1 1 < < 1 1 1 < 1 > * 1 1 < : > < w t 1 ",
"1 1 1 1 < * * < < % % $ & < * & & < 1 > $ % - 1 < < % & < < < : @ % % $ 1 1 1 1 1 & % & 1 1 & 1 1 1 1 1 < < $ : : $ < t w < 1 3 ",
"< * & % $ * 1 1 1 < % & q 1 1 1 < & % & # % > 1 1 < - # % & % % X % @ < 1 1 1 1 1 1 % % % < & : < 1 1 1 1 1 > % % < 1 w t q < 1 ",
"< w w 3 & % & - 1 < % % : w q 1 1 1 > $ X # & 2 1 1 1 < @ % % % X X X % > 3 w 1 3 : # @ $ % % % : & < < 1 1 1 $ : 1 1 1 t u w < ",
"u u u t w & % % & * & @ % % : w 1 3 : # + X $ > q 1 w 1 : @ $ @ X X X # % % * 2 % % @ X + @ % 1 1 % % * 1 1 1 & % < 1 1 q u u t ",
"u u u u w < % $ % % $ X $ % % % % % % @ . X @ % 3 < : % # X X . X + + X @ % % % % @ + X + % 1 1 1 1 * % % & : $ % < 1 1 1 t u u ",
"u u u u 1 1 & $ $ $ $ X X X @ % % % @ . O X X $ : % % # X X . . O o O X X @ % $ + @ @ . @ % % & 2 1 < $ $ % % # % % 1 1 1 q u u ",
"d t p w ; 1 < % # # X X X . X X # X .   o . X X % % @ X X .     o o o . X X @ X . . . O X # % % % % % $ X # # $ % % : < 1 1 q u ",
"w e e 1 1 < & # < - # . X     X @ X . o o O X X @ X X X .   o o o o o o X X X X X .     X X @ # % % % % X X X % % % % % & < 1 q ",
"1 q 1 1 & % $ < 1 & $ X X o o o . X . o o o X X X X . O o o o o o o o o O X X X . o o o . . . X X % % # X X X $ $ & > % : < : * ",
"1 1 1 > % $ < 1 * % % X X o o o   X   o o o O X X . o o o o o o o o o o o . . O o o o o o o o   X $ X X X X X @ % < 1 t 1 u u u ",
"1 - * % % < 1 1 & % % X   o o o o o o o o o o O o o o o o o o o o o o o o o o o o o o o o o o o   X X X X X X % % > 1 q e 3 e t ",
"< & % 2 1 < - 1 % % @ X O o o o o o o o o o o o o o o o o o o o o o o o o o o o o o o o o o o o o o O . X X $ < & & < 1 1 1 < 1 ",
"* < e u q * % : % $ X X o o o o o o o o o o o o o o o o o o o o o o o o o o o o o o o o o o o o o o o O . X $ * 1 % % < 1 1 1 1 ",
"t u u u 1 < # % % X X X o o o o o o o o o o o o o o o o o o o o o o o o o o o o o o o o o o o o o o o o X X % % 1 1 % > > 1 1 1 ",
"e e e w 1 < % # $ X X . o o o o o o o o o o o o o o o o o o o o o o o o o o o o o o o o o o o o o o o o . X $ % < 1 & q 3 < 1 < ",
"u u t < 1 < % X X > # . o o o o o o o o o o o o o o o o o o o o o o o o o o o o o o o o o o o o o o o o . X @ % % 1 & e u 1 > < ",
"e t e < < & % @ < 1 $ X   o o o o o o o o o o o o o o o o o o o o o o o o o o o o o o o o o o o o o o o o X @ $ % : & q t e t : ",
"q 1 1 1 : % % 3 1 * # X   o o o o o o o o o o o o o o o o o o o o o o o o o o o o o o o o o o o o o o o o O X $ % # & q u u t t ",
"1 1 1 1 & % 1 1 1 & # X .   o o o o o o o o o o o o o o o o o o o o o o o o o o o o o o o o o o o o o o o   X X # $ < 1 t u t u ",
"1 1 1 & % & 1 1 * % $ .   o o o o o o o o o o o o o o o o o o o o o o o o o o o o o o o o o o o o o o o o . X X X % - 1 q u t u ",
"1 < < % % $ 1 1 % % $ . o o o o o o o o o o o o o o o o o o o o o o o o o o o o o o o o o o o o o o o o o . X X : $ : 1 1 q t e ",
"1 < % : e 3 < > % % @ X o o o o o o o o o o o o o o o o o o o o o o o o o o o o o o o o o o o o o o o o O X X # * < % > 1 1 e e ",
"1 : 3 u u w > % % $     o o o o o o o o o o o o o o o o o o o o o o o o o o o o o o o o o o o o o o o o . X X $ : 1 < % < 1 1 < ",
"& : t u u e # % % X     o o o o o o o o o o o o o o o o o o o o o o o o o o o o o o o o o o o o o o o o . . . $ % < 1 1 & < 1 1 ",
"$ > r u u w % # @ X   o o o o o o o o o o o o o o o o o o o o o o o o o o o o o o o o o o o o o o o o o X X X # % & 1 1 > & 1 1 ",
"3 < t 3 t < % # X X   o o o o o o o o o o o o o o o o o o o o o o o o o o o o o o o o o o o o o o o o o X X X X % % > 1 1 & < < ",
"w r u u < < % $ X X X   o o o o o o o o o o o o o o o o o o o o o o o o o o o o o o o o o o o o o o o o o   X # % % * 1 - % % & ",
"t w e e 1 1 % $ & # .   o o o o o o o o o o o o o o o o o o o o o o o o o o o o o o o o o o o o o o o o o   X # % % > < % : 3 3 ",
"w < t 1 1 - % & - % X X   o o o o o o o o o o o o o o o o o o o o o o o o o o o o o o o o o o o o o o o o O . @ % % < % : e w p ",
"1 w q 1 1 & % < - % # X   o o o o o o o o o o o o o o o o o o o o o o o o o o o o o o o o o o o o o o o o o X . # % % & u u u u ",
"q w * 1 < % & < 1 & $ X . o o o o o o o o o o o o o o o o o o o o o o o o o o o o o o o o o o o o o o o o o . X X @ % $ t t u t ",
"1 1 * 1 & % * 1 1 - % @     o o o o o o o o o o o o o o o o o o o o o o o o o o o o o o o o o o o o o o o o X X # > t 3 w t u u ",
"1 1 < % % % 1 1 - * % @ X o o o o o o o o o o o o o o o o o o o o o o o o o o o o o o o o o o o o o o o o . X . $ 1 e t 2 t u u ",
"1 1 < $ % % 1 1 = % % # X   o o o o o o o o o o o o o o o o o o o o o o o o o o o o o o o o o o o o o o o . X % $ < 1 t t 1 w t ",
"< * % % $ $ < < % % % @ . O o o o o o o o o o o o o o o o o o o o o o o o o o o o o o o o o o o o o o o   . X - * % * 1 1 > 1 1 ",
"& * : - 1 % % % % % # X . o o o o o o o o o o o o o o o o o o o o o o o o o o o o o o o o o o o o o o o   X @ * < & % * < % < < ",
"1 - * 1 1 < # % % $ X X . o o o o o o o o o o o o o o o o o o o o o o o o o o o o o o o o o o o o o o o   X X $ % % # $ < * * & ",
"1 1 1 1 < & @ # # . X X   o o o o o o o o o o o o o o o o o o o o o o o o o o o o o o o o o o o o o o o   X X X $ # # & 1 1 1 > ",
"1 < 1 < & % @ @ X X X X o o o o o o o o o o o o o o o o o o o o o o o o o o o o o o o o o o o o o o o o O X X X X @ % % 1 1 1 1 ",
"> 1 < % % % @ @ X X X o o o o o o o o o o o o o o o o o o o o o o o o o     o o o o o o o o o o o o o o o X X X X X $ % * 1 1 1 ",
"& * % % % % @ @ X X X o o o o o o o o o o o o o o o o o o . . o o o o .   . .   o o     o o o o o o o o   X X X X @ @ # % 1 1 1 ",
"& % % % % $ @ X X X   o o o o o o   . . O o o o o o o o . X X   o o . X X . X .     . .     o o o o O X . X X X @ @ @ @ % - 1 < ",
"% % % % # @ @ X X X + +   o o o . . X X X o o o o o . X X X X X . . X X X X X X . X X . X .   o o o X X X X X X @ @ @ $ % % % % ",
"% % % # % & @ @ X X X X X . O X X X @ @ X . X . O . X X @ @ @ X X X X @ @ X X X X X X X X X .   o   X X X X X X X X @ @ # % # % ",
"$ # $ - 1 < @ @ @ X X X X X X X @ @ @ @ @ @ X X X X @ @ @ @ @ @ @ @ @ @ @ @ @ X @ @ @ @ X X X X   X X X @ X X X X X X X X @ % % ",
"# * > < 1 < @ @ @ X X X X X X X @ @ @ # @ @ X X X X @ @ @ @ @ @ @ X @ @ @ @ @ @ @ @ @ @ @ X X X . . X X @ @ @ X X X X @ @ & % % ",
"- 1 1 1 - * @ @ @ X @ @ @ @ @ X # $ % % $ @ X @ X @ @ @ # $ $ $ # @ @ @ @ @ @ @ @ @ @ @ @ X X X X X X @ @ @ @ @ X @ @ @ # - 1 1 ",
"1 1 1 1 ; & @ @ @ X @ @ @ @ @ # % % % % % % # @ @ @ $ $ % % % # @ $ $ $ $ $ % $ % $ $ $ @ @ @ @ X @ X @ @ @ @ @ X @ @ @ # * 1 1 ",
"1 1 1 1 - % @ @ @ @ # @ @ @ @ @ % % % % % $ @ @ @ @ $ % % % # @ $ % % % $ $ % % % % % % @ @ @ X X @ X @ @ $ # @ @ @ @ @ @ % & * ",
"1 < * & & : $ @ @ % & & $ $ @ @ @ % % $ @ X @ @ @ # @ @ $ @ @ @ # $ % $ $ $ $ $ # @ @ @ @ % # X @ @ @ # % % % % # X @ @ @ % % % ",
"< % % % % % % # @ $ % % % % & # @ @ @ X # # $ - - % # @ @ @ @ @ @ @ @ X @ @ X @ @ @ @ # % % % # # $ $ @ $ % % # @ @ @ X @ % $ % ",
"% % % % % $ $ % $ @ $ % % % % % # @ $ % % % % % % % % # # @ @ @ X @ # $ $ @ X # % * $ % % % $ % % % % $ @ $ # @ @ $ * $ X # % % ",
"% % % % % $ % % % % @ $ % % % % $ $ # % % % % % % % % % $ @ @ # % - * & & $ X & % % % $ % % % % % % % % # @ # $ $ $ % % % # % % ",
"% % % % $ % $ % $ % $ # $ $ % % % % $ % % % % % % % % % $ @ @ $ % $ & % % $ @ * % % % % $ $ % % % % % % $ % & % % % $ % % % $ $ "
};
