/* XPM */
static char *_81818ee6bce4b83e2e597bd6be025casBjLPGrcLvONUXU1[] = {
/* columns rows colors chars-per-pixel */
"64 64 85 1 ",
"  c #161311",
". c #1A1614",
"X c #1D1917",
"o c #1F1C1A",
"O c #201B17",
"+ c #231E1B",
"@ c #26211D",
"# c #29231E",
"$ c #262321",
"% c #2D2621",
"& c #2E2824",
"* c #302723",
"= c #322B25",
"- c #362E29",
"; c #382F29",
": c #3C332D",
"> c #3F3630",
", c #40362F",
"< c #413731",
"1 c #443A33",
"2 c #4A3E37",
"3 c #473E38",
"4 c #4A3F38",
"5 c #4D423B",
"6 c #51453E",
"7 c #534740",
"8 c #554942",
"9 c #5A4D45",
"0 c #5C4F48",
"q c #5C5047",
"w c #5D5047",
"e c #5C5048",
"r c #5E5048",
"t c #5F534A",
"y c #60524A",
"u c #60554B",
"i c #62544C",
"p c #62554D",
"a c #63554D",
"s c #63574D",
"d c #63574E",
"f c #65574F",
"g c #65584F",
"h c #66584F",
"j c #675A4F",
"k c #665850",
"l c #665950",
"z c #675951",
"x c #675A51",
"c c #685A52",
"v c #695B52",
"b c #695D52",
"n c #6B5C53",
"m c #6B5D54",
"M c #6D5E55",
"N c #6D5F56",
"B c #6E5F57",
"V c #6D6055",
"C c #6F6057",
"Z c #6F6158",
"A c #706057",
"S c #706158",
"D c #716258",
"F c #726459",
"G c #726559",
"H c #74655B",
"J c #74675B",
"K c #74665C",
"L c #75675C",
"P c #76685C",
"I c #77695D",
"U c #77685E",
"Y c #77695E",
"T c #796B5F",
"R c #796B60",
"E c #7A6B60",
"W c #796C60",
"Q c #7B6C60",
"! c #7B6D61",
"~ c #7D6F62",
"^ c #7D6F63",
"/ c #7E7063",
"( c #7F7164",
") c #7F7265",
"_ c #807265",
/* pixels */
"t9=Z(gb~A8JSNvNNp45v3ATJ52225HTA62z~_YNNb2*tQEN648AANAN946Aii;22",
"2:9CY(~JZ6Lz52662451NN922222i~~AA:4mLAAA<,yAJCN64vANA~~Ej622yv=2",
"==8vCCCCNp14222244>8A8522226N__TS518fNf612jANNANzNANAJ~_TNfvNN1:",
"#<24tmCg55=22221>1=1N8kvi966J__TS9:4252=22nfNNANAANf68nSSANAv6*%",
"g=22258222<=2-178888qNAAAAAAS~~TCN=:<:*+229pf69vN062224iNNp92-*,",
"Y5:42222222#,fAQEZZN<vCAANNASbifAv==699%229AvN922250v8225522-,fT",
"Jq112222221-NAS__LAS65vAAnf9622275+fL^v:#=285vu229NAN622222::26f",
"J5m:222221+8ASS_(TCNv:299222221:1%X2L^v221%#:56226AN642221*#=222",
"S9Sk=522=:38ZNL__TAAN:=225152#=> %+2p(P98991:=1225C8152:<uT~2<52",
"AN(~p<@#N558ZZSSSAAAf21*#,,&+6YC=v566TYCCCC69:%:22t51=@5/CJ_E-12",
"uNE(LZ<6E6f5SNSN924622;=9658C~T95p9mqCACAbu66=96=&#5qq$NJ2qYN1+2",
"49vANZv5~TT17NN92222;*4T_TTTYAA1Np5NCCCC95<*1CT_J996AA5NCfNb6<+=",
"222996N2A~U9=4622221=5GTPAACAA8p~C=8CZAg21=2tT//T9ffAA15vAf52:zN",
"22222201iAv4-*222221#228bACb086~(Y:57vz52#*15pu82=6fvp6%2622,2vN",
"1222222#1662:.+*:,1-.2255652,:A_(G8<222<%6N81522:&152251@121=228",
"5122222.1222:,22,:::##<2522<*2uJ~Cm=122%vA/J*;:5CC=2222==@:+526v",
"5#2222*%#22,=9k99tbv*;8;151#525gvi06:%:,:;9v:6H~(/g>5,<bZzt93:5z",
"2X:,:*:2:X=,iT__((Qm:8QZ2:=:=22542222*22441=8~___TC5*8A~(/QQYq=5",
"%=::,6yi-,4b~~ASSAf<1G(RAANAg=1222222#=422220LJfq5259AnnPT/(((C5",
"6ffjvNAb-2k_~AZNN8=:<CYpgNu68=#12121=6f==*:=5Nf52221882258tNQQJC",
"6CTTNAAf:48vNj95<-52:&&#;:=1222:::-5S_Lt5ff2yi222221:522244478et",
"T__T96fS<44452:#<tb95=$;uJY~n5268fv6J~JffNn=ff922221:1-&-*%-:<4<",
"___N222b0=14-O<iG/TC56z:A/__JvnASNA<tbbCCAp=fSv2222:#*6gSp:1>-%1",
"___9222tN%%%-$iL((Jz=pC;f~__TAT_~~Lz=26Ag811H_JNu95:6pAY~N-5457m",
"J~A52226N212215L(JN:29A,6AT_Y~____LN=4262:#9~_~NSBN1ZE((~A<vt9E_",
"9v922226vf=264%vZN1-26A21yAAAYT/~_LN%121:9<8STYANt1:J(((~5pT~~(Q",
"2222222iAA;6Nn5*3::-25Nf=59fy99qvNNv++=<vA:59ui961X<vZJm95NSLTYN",
"-2222229f6*6TLv2.6k=25NA5<222222445p%+N_~N612222-X&<ti74-:6fNNp5",
":,2222221#,9_TA55~~115ff9#252222222515J^YN6:441++501441>=*226622",
"N5:2222,#1y~_Tb5~^(t#4222<#122222222:NBLNi1-2:-7*Bt<1:8zAk=4422:",
"NA8-21*:9jU__A1S(^Yz+=2422*@:5222222:Nmnf52%%#zk8Zm$5ZY~_L=>41:f",
"468#O*1269fSn2b~~Lzz$$#:<:6=O#;::-=%#4232244=9Lz4Z9<SQ(((B%+18AJ",
"252==:2252266yAJS929+:1-,9NN4;51>11,+222222*yT(Z:8<9CJ~TAf1L___T",
"1:%122=:2222:1fv622-2229vZEZN1v622228:1224=8~((m=5=zNNvvf5S/__Tm",
"+:26622,=,22::2422=1229NZ_~(Z99AAgffNN8:1:16Q(~Z12=52223,6T_~J8:",
"26vANf622,=:%%,:%#:v626A~__(SN8~_TAvNAA=5bN:6LQ(z=;42225=NAJv6=<",
"fJ__TNNj06,8A0181+5N924N~__~AN9T~_A65fA5AJu:8C~_Qp=25251=6t92*2f",
"L___HNAAAp8J_~AAv#8S922NNSE~AA2uNJu22286Cv659CT(((Z4:1<$1241*1fA",
"U___AfnAN<y~_SnNN:9N922kANNAAN:29f5222:y55=229fAYYYZz=qz7>#+:2iv",
"6JJSu268=<4bN92vNp*142240vtkAN+:22222=:p22:<22228tmCteQQANu;#222",
"*9bf522*+<42424NNSf*1222222206:--22,%X1444@%522222251Nnfvvi5O::1",
":1252,%X-=12222i9996.-,1211;*1221**O%<:1=+=4=22222245f5222:>9Zm0",
"f5::1fJ=46:12422<-#*,26<+=:12222224.iN1-194m2*=<1:==:42<:5N~__YN",
"6nAS___810b5=-=*%-222gS612222222622<AAAbSB8vv44::112%-:9vSTQ~Nz9",
"26T____N<4L~Nk82-222fT_,2458iiyNb22:zJ~TbZ8vYp56ii96:15668886512",
"126J~TYt,f__TAAk:26bAT_u=4fSLQ~_Qk9:8vTLSZ5~~ZNNJ~Ai:-,22222222:",
"#526by5$2v~ELviA<2pA/A~A41t~^___ENp1248ittp_^AB~__A92f2==-=:%:5p",
"O:2225*=450t642911pC~ANNN=iASEJSNZq<22224:^_TNSQ_EN25vNviu=:4268",
"1::25:86<222211:+4NNJAu5ff66--9pb9:%4522-6T_AfuATAA:55fANv<i5<::",
"5Nf1<8~~51241:=%#4fAf5925v1<66:*:&***=*==5bAq28AN91+:229N5vJ_~Ly",
"6T_9:n__N%:-8pp8=<2982224590NN4:9NLN5125:256225q5:X%+%:<:-vJ__LZ",
"26TTN5T_J<&kSNAAN:22222221:J~N9*yJTANbnN0:25222<-7tni61<1=9AHJNN",
"126AA8gv81NAST~JAN<24224:4L_JN65=5vNSNSLA,2254:8nR(((LvvA2168t96",
"1120Ahy041NSL_~_TSv;22<$4N~~A8p951<9NNJ_TN<<1=:NZJ^((^NZNg-2221=",
"v=5uA5uAb8pNAT^__SN%%+ @45py55k227518NE_(Y0 #+*5pmZRLZNNAA9*1:-2",
"2:2vg:uNNN=59NSESA0:49y%222244p4220>19Z~(J9=&5<:450nBBNkANf-:129",
"1=2t6:2258+&1460k9-99vNb:44422v2226i:2fAAu,<9At*<2258842ii1:9fjJ",
"**1-:11<5*kf:22244-vABLE9%<42<N9224N:2262:*pA_J8+122422221#6NAA~",
"<29ZLNNp<5988%:45<:NkzZS1v841=9Nvi86##=*%::2qJZA5*1222422%2NT___",
"2f~~f45bz<559S8==O8B58BptQSZS126742:62126g125ACC5b2=:251%6NT___U",
"2bJAf99pA151T(Tz5&5S69Z8v^JpCu:52221g229TG<26f964SQY8*=+9AAT__~v",
"2gNAS~_/S9:<AT~SSv1Nt7S7mp526b:121*gA99T_A:2222&<8tvNN9&*8NAS~H8",
"226pS~__Jf#29NZNAb7ii2k<724225y;*O:9NAA__f:222:=222259u6#5690fv4",
"22255pJSN1*128vv74=1t24=<222222*21:256qAgp-222%22222222f=2222222"
};
