/* XPM */
static char *_3343d96fa7d41fc8fe16aad18ac138bqfn66fphvzrBtNcO[] = {
/* columns rows colors chars-per-pixel */
"64 64 177 2 ",
"   c #131617",
".  c #151719",
"X  c #16191A",
"o  c #1A1C1E",
"O  c #1C1F20",
"+  c #1E2123",
"@  c #1E292C",
"#  c #212425",
"$  c #222629",
"%  c #262A2D",
"&  c #292D2F",
"*  c #272C30",
"=  c #292E31",
"-  c #2D3235",
";  c #243239",
":  c #2E3538",
">  c #29383D",
",  c #31363A",
"<  c #343A3D",
"1  c #2E3B40",
"2  c #363D41",
"3  c #383F42",
"4  c #284047",
"5  c #354146",
"6  c #3B4246",
"7  c #36444A",
"8  c #3E4549",
"9  c #30484F",
"0  c #334E56",
"q  c #394D54",
"w  c #2A535E",
"e  c #36535C",
"r  c #3D575E",
"t  c #2E5760",
"y  c #2D5B65",
"u  c #305660",
"i  c #3A5A62",
"p  c #29636E",
"a  c #3C626C",
"s  c #356B76",
"d  c #386B77",
"f  c #33707C",
"g  c #40474B",
"h  c #42494E",
"j  c #464D51",
"k  c #484F54",
"l  c #4A5156",
"z  c #41545D",
"x  c #4D555A",
"c  c #4F585C",
"v  c #50575C",
"b  c #51595E",
"n  c #435B63",
"m  c #475965",
"M  c #4C5D64",
"N  c #415E68",
"B  c #555D62",
"V  c #47646D",
"C  c #4D666D",
"Z  c #576065",
"A  c #596166",
"S  c #53646B",
"D  c #5C656A",
"F  c #5F686E",
"G  c #4D6A74",
"H  c #556372",
"J  c #5E6974",
"K  c #526F78",
"L  c #45737E",
"P  c #56737C",
"I  c #60696F",
"U  c #646C73",
"Y  c #677077",
"T  c #667078",
"R  c #69727A",
"E  c #267A89",
"W  c #397885",
"Q  c #467281",
"!  c #4B7682",
"~  c #557A84",
"^  c #537D8B",
"/  c #5E7E8A",
"(  c #687E85",
")  c #368796",
"_  c #268FA0",
"`  c #369BAC",
"'  c #4A8897",
"]  c #588591",
"[  c #68848D",
"{  c #7D8488",
"}  c #648D9A",
"|  c #7C8C91",
" . c #7A9097",
".. c #7D969D",
"X. c #4C96A3",
"o. c #6399A4",
"O. c #659CA9",
"+. c #709BA7",
"@. c #4FA4B7",
"#. c #7BA1A9",
"$. c #64A4B1",
"%. c #6CA3B3",
"&. c #6EADBC",
"*. c #7CABB6",
"=. c #77ACB8",
"-. c #5DB7C8",
";. c #59BFD3",
":. c #6EB4C4",
">. c #6CC9DC",
",. c #809DA6",
"<. c #8D9EA4",
"1. c #88A4AC",
"2. c #8AA6B0",
"3. c #91AEB9",
"4. c #92B5BC",
"5. c #A6AEB9",
"6. c #A8B3BA",
"7. c #8BBBC5",
"8. c #85BCCA",
"9. c #99BAC6",
"0. c #8ABED0",
"q. c #82BFD8",
"w. c #ACBBC4",
"e. c #A6BAC9",
"r. c #B4BBC3",
"t. c #8BC2CF",
"y. c #9DC2CF",
"u. c #84C4D5",
"i. c #97C7D7",
"p. c #99C6D5",
"a. c #9CCDDD",
"s. c #A6C4CE",
"d. c #B7C3C6",
"f. c #B4C4CD",
"g. c #BBC7CB",
"h. c #BBC5CC",
"j. c #ADC8D3",
"k. c #A4CCDB",
"l. c #B7C7D0",
"z. c #B4CCD4",
"x. c #BDCFD5",
"c. c #B2CFDB",
"v. c #BDD1D5",
"b. c #9DCEE2",
"n. c #8ED5E5",
"m. c #9BD2E5",
"M. c #9AD6E9",
"N. c #96DFEE",
"B. c #9BDAEA",
"V. c #A5D3E4",
"C. c #AAD5E4",
"Z. c #A7D9E8",
"A. c #B8DBE8",
"S. c #B8E2EF",
"D. c #B5E0F0",
"F. c #BCE5F2",
"G. c #C1C4C5",
"H. c #C3CBCE",
"J. c #C9CCCD",
"K. c #C2CCD1",
"L. c #CED1D3",
"P. c #C7D4D9",
"I. c #D3D4D5",
"U. c #D4D6D9",
"Y. c #D3DADB",
"T. c #DADBDC",
"R. c #D5DEE1",
"E. c #C2E2ED",
"W. c #D4E5E9",
"Q. c #C1E5F1",
"!. c #C9EAF4",
"~. c #CFF1F8",
"^. c #E1F7FD",
"/. c #EDFBFE",
"(. c #F1F7FB",
"). c #F4FCFE",
"_. c #FDFFFF",
/* pixels */
"g.w.w.H.L.T.T.e.Y.T.v.K.L.H.f.H.d.w.L.L.f.H.H.r.6.J.J.r.K.U.Y.P.h.U.U.K.T.T.T.P.Y.I.J.J.L.I.U.I.L.g.w.J.H.6.g.H.x.w.r.5.d.d.r.G.",
"_._._._._._._._._._./.(._././._._._._._._._._._._._._.)._._._.)./._.).)._._._._._._.(._._.)._._._._._._._._._._._._._._._._._._.",
"j.R.{ 6.P.Q.S.E.C.y.0.0.a.B.B.A.A.S.Q.Q.A.A.f.9.k.Z.b.M.b.y.k.M.q.k.D.V.s.9.Z.i.p.m.>.z.!.F.m.D.v.3.k.E.s.a.Z.C.C.E.^.W.l.x.c.F.",
"P o.x D S ;.~ V x = t ! z >.:.H H M ^ @.n J I v n O.' O.G D Q %.& &.~.n.] M 2.B b 7.} Y ( / m s.x D C V A M ..+.! V 8.Y U B P ,.",
"G ) 6 g h -.P Y l 6 l B B 7.[ T I D x ` b U U l 6 > d W ! T ^  .l L N.Q U I <.b A *...F Y b j 8.8 B K S U < 6 B S x 1.U R F z ( ",
"C d 6 6 1 &.z k , 6 F Y U $.C F I D b _ h D B 6 6 2 > i W l u N B V B.x D B | B D O.#.Z D h < s.2 < L r j - j U T F a A U D M S ",
"q 9 6 3 = 4.4 6 = 3 D R Y *.M D D D b _ 2 h 8 6 6 3 $ n s 3 1 1 x M u.D F B T B D a #.8 8 6 < [ : 6 L y 8 % h I R R n D A D x 6 ",
"3 < : O , =.5 6 $ - h D U o.c j h A g p & 6 6 6 2 $ % e f 3 = O 6 j t.D F x 5 B b + [ < 8 6 < e X 6 7 9 6 . < x U U q A h x h : ",
"= # # $ , 4.; % + , , g h X.6 6 , - < < 2 & & $ # % & w p =   < = 5 &.8 h 6 < = - < 0 = = = + @ + 2 2 & + , % 2 h j , 6 6 - - 2 ",
"6 o g A , *.@ 8 < D g : & ] % = , 6 6 6 6 6 5 : % D h ; , 6 , B x 8 ' @ & = - 6 6 6 - 6 6 3   3 B & - 2 g h B 3 , # % - - < 6 8 ",
"6 - D D x $.- x h B D D 8 a 6 6 6 6 6 6 6 6 6 - b D A 2 6 8 b l D S w < 6 6 6 6 6 6 5 6 6 2 8 D D j 6 6 B 6 D D A - 6 6 6 6 6 6 ",
"h g I U B ) 6 B l 6 k , = 4 g g v g 6 6 6 8 h 6 D U U x 6 x A , j 3 @ 8 g g x l 6 6 6 6 g g x U T A 6 h D 3 h h % 6 h 8 k x 8 6 ",
"I < A U b E B U D - & 6 < j R R Y B g x b B D l x I I B v I I h $ , = b R R R I h k x B D B 6 D U D l D U B % < , k U R R U x j ",
"D b < x 8 a U D j & A Z < A R R R I D I U I I A & x j A R I x - x B 2 B R R R U D F U I I F 6 j j c T U B 6 , F j j T R R T D D ",
"U D % 6 6 : h 6 $ l T A - b U R R U Y R R R Y I 6 6 6 x x 6 : : I U < k I Y R U U R R R R I b , 6 h c 8 2 + B R h 6 A T R R U T ",
"U D < 3 8 - 3 2 - l R F - 8 D U I U R R R R R D l - 6 6 3 , < 6 U U g 3 B I U I R R R R R U A $ 6 6 6 < 6 - A R b < k D U F T T ",
"I D & # < = h I , h U U g 2 j A D B B B F U F A h o , - < A g 6 B Y B = g B D A B B A U I D B . = , - x c < x U U - 6 x A A B B ",
"l b $ # k D U D 3 6 b U A - 6 6 6 6 6 6 6 j j B 6 # 6 B U D l 3 k I F 6 3 6 6 6 6 6 6 g j x v # % x U I A , 8 D F x - 6 6 8 6 6 ",
"6 g g & I R U D h < j D A h - 6 6 6 6 6 6 6 6 6 l X b R R I b - 6 A D v $ 6 6 6 6 6 6 6 6 6 j = 8 U R U D , 6 c A A - < 6 6 6 6 ",
"6 6 , b I U D b 3 - 6 6 6 6 * , 6 6 6 6 6 6 6 6 3 h D U I A g & 8 6 6 6 2 % 3 6 6 6 6 6 6 6 6 , D F I D l - 2 6 8 6 6 @ 3 6 6 6 ",
"6 6 , A D A A h 5 # < 6 6 6 6 O = 6 6 6 6 6 6 6 5 l A A A x 6 & : 3 6 6 6 - + 3 6 6 6 6 6 6 6 2 D D A B 8 , % 3 6 6 6 3 X , 6 6 ",
"- = # g 6 6 6 6 6 6 $ = 2 3 , 3 + O - < < < : - $ 2 8 8 6 6 6 6 , # 2 3 : 8 $ o & < < , , - = * 8 6 6 6 6 6 2 O , 3 < 3 - O # , ",
"< < + 6 6 6 6 6 6 & : < - < x D b & 6 < < < < 2 & , 6 6 6 6 8 , = 2 : : h D A 3 - 6 < < < < , $ 6 6 6 6 6 6 % < , - 3 A D k + 8 ",
"3 6 h 3 < 6 6 6 - , h x b A U I D v l x 8 3 6 6 8 h : 6 6 6 < % 6 l x B F U D D 3 B h 6 6 6 6 j , 6 6 6 6 # 3 h v b D U D D 8 B ",
"l B D D l - < , 6 , l D D U R R T D 3 A I A B B A D B , 2 : 6 , 8 A D F T R R F l l F F B B B F D 6 < < < 3 2 B D D T R Y U A 6 ",
"B A B D F , j I D , 8 A D R R R U D v A R R U D B A D l < A F 8 6 B D U R R R D D k T R U A B A D D $ v I x , k D I R R R I D h ",
"U h 6 l D g U T x 2 B D D U R R U D b A U U U x 6 h A x A R F : k F D U R R T D D l U U R A 6 8 b D j Y U 6 6 A D D Y R R I D x ",
"b 6 6 6 8 h A B 6 6 D U I D D U I D v 6 b D D 8 6 6 6 3 A Z l < x U U D D I U D F 3 l A F k 6 6 6 6 x A b < j I U I D F U D D g ",
"6 6 6 6 - v 6 6 = 6 D R R U D D D D v - 6 l h 6 6 6 < j h 6 < : b T R T D D D D D = 6 j l 6 6 6 6 < x 3 6 * j U R R I D D D D g ",
"6 6 3 $ , k 6 6 = : x U T R D b x D l   , 6 6 6 6 - $ h h 6 2 $ h D Y R U B l D A o % 6 6 6 6 < O 6 j 6 6 O 6 B Y R U D x b D < ",
", & # o 2 6 6 : O % 3 j c x k 8 3 6 : 6 - = : - # # & 6 6 < O & , h c c l 8 6 3 , 6 < % , , $ # O 6 6 3 % % & 6 x b x h 6 < 6 , ",
"2 + , c = = * , , B , % % - = = & 3 6 6 6 6 < = + v 3 = & - $ b 8 & $ - - = & , 6 6 6 6 < < . h k & = = - h l = % & - = & - 6 6 ",
"6 $ A D l 6 6 x g D D A 8 , 6 6 6 6 6 6 6 6 6 - k D B 6 6 g x b D A b & 3 6 6 6 6 6 6 6 6 3 , A D g 6 6 B g D A A - 3 6 6 6 6 6 ",
"8 8 D U D 8 6 b h h B h - 6 6 3 g 8 6 6 6 8 6 < D I F l 6 h B < b l - 6 6 6 8 8 6 6 6 6 6 2 x F U B 6 6 B < v b 3 < 3 6 6 h 6 6 ",
"A 6 D U F k x F A , = & < A U U T b 6 g k x A h B U U b h F D g - - % b I U R D 6 8 j l A B j I U D g B F v , = $ h F I T U k 6 ",
"A k 8 B B F R U x % x b 3 U R R R D A D F D D A - Z b D T Y A < 6 D , B R R R U A A F F D D , v B B U R I j $ B h k Y R R R A A ",
"U D % 6 8 A b g - g U A : A T R R I U Y R R R F < 8 6 b Z h 6 - I U , x U R R U I R R R R I v < 6 k D l 6 % B T h 8 I R R T F U ",
"U F , 6 6 8 6 , % l R D - h D T U U R R R R R D j < 6 8 6 < = < U U 6 6 B U U U R R R R R U B * 6 6 6 3 , = B Y x 3 v I R U Y R ",
"I D - = 6 < < A , j U Y 2 6 x D D D I I U T I D l o 6 3 - x g 8 F T x : j D F D D I U U U D B . 2 6 - 8 x < v T I = 6 B D A F F ",
"b A # o < x I D < 6 A U b - 6 h j g 8 g h x b D < # , g D D h 6 x U F , 3 8 j h 8 8 h l b B v # # 6 B F B < g F U h 2 6 j j g 6 ",
"< l 3 + D R Y D h < l D D 8 < 6 8 6 6 6 8 6 6 8 l . x Y R I B - 6 A F x = 6 6 6 6 6 6 6 6 6 v % , T R U D , 6 b D A = 6 6 6 6 6 ",
"6 6 < l I Y I A 6 - 8 j h 6 $ 6 6 6 6 6 6 6 8 6 8 < D U I D j & 6 j j 8 - , 6 6 6 6 6 6 6 6 6 : A I T D b - 6 h k h 3 $ 6 6 6 6 ",
"6 6 , A D D A k 3 % 6 6 6 6 6 + < 6 6 6 6 6 6 6 5 k D D D b 8 # 2 6 6 6 6 = - 6 6 6 6 6 6 6 6 2 D D D D 8 - - 6 6 6 6 < $ 3 6 6 ",
"2 < = x l h g 6 6 < % < 6 6 , # o % < 6 6 6 6 < , 8 l j g 8 6 6 = - 6 6 < = . + < 3 6 6 3 3 < , x h h 8 6 6 : % 3 6 3 : o o - 3 ",
"& & X 6 6 6 6 6 6 - % % & & l A g O % - % % & & o , 6 6 6 6 6 2 $ = $ = 2 D x & + - = & % = $ $ 8 6 6 6 6 6 & & % % - B B < X - ",
"6 8 < - 6 6 6 6 < - 8 g j b I I D l x h 6 6 6 6 6 - 2 6 6 6 6 # 6 8 j x A I F B 6 b 6 6 6 6 6 < - 6 6 8 6 & < 8 h x B I F D < B ",
"l l A A 6 < 6 , % < x D D F R U U D < D A c l l b D l , 6 6 & - h D D D T R U F g b A B x k x A b : 6 6 - % 6 B D D U R U I b h ",
"D D D D D - < b D - 8 A D Y R R Y D x B T T F D D D D h % k D 8 6 x D U R R R I A j U R U A D D F Z o 6 B b , h D I R R R U D g ",
"U j g B D 8 U R B < x F F T R R U D v D Y R T b 8 x D x B R U < g D D T R R R D D x U R R D 8 j A D g Y Y h 6 B D I Y R R I D l ",
"A 6 6 6 l g F F h 3 A F D D U T U D b h A F I g 6 6 g g A F b , c I F D U U U D D g B F I x 6 6 8 l l I D < h I I D F I R F D h ",
"h 6 6 6 < l j 6 = 6 F R R I A D D D v , 8 b x 6 6 8 6 6 l 8 , , b R R U D D D D D - 6 x b 6 6 6 6 , x g 6 = h Y Y Y I D D D D g ",
"6 6 6 - - x 6 6 = 2 B U R R F A B D x . 3 6 6 6 6 < # l h 6 6 & l I R R I D b D D O , 6 6 6 6 6 % 6 x 6 8 # g D Y R Y F B A D 6 ",
"2 < $ o 3 6 6 3 + % 8 b A A B 8 8 x < < % < 3 3 & # - 6 6 6 % O 5 l A A B j 6 k g , = - 6 3 - # O 6 8 6 : O - g A A A x 6 h x = ",
"- O % 6 = < = # = j & - < 2 < , % - 3 6 6 < = $ # 6 - < - % . x - - , < 3 < = = 2 6 6 2 = = O , < , : & O g 3 = : 2 2 < - % , 6 ",
"6 O x D h < 6 x 6 D B x < = < 2 6 6 6 6 6 6 6 = 3 D b < < g h b A x l + , < 3 6 6 6 6 6 6 3 # A A < < 6 b h D b x # - < 3 6 6 6 ",
"6 3 F F B 8 6 l h x D b < 6 6 6 6 6 6 6 6 6 6 : A D D g 8 8 B 8 D B 8 3 6 6 6 6 6 6 6 6 6 < l D I x 8 6 B < A A l : 6 6 6 6 6 6 ",
"b g F R U h k A b , < o , b B B I x 6 6 6 j b h D Y Y b 6 B D 3 < % $ l b B I B 6 6 6 g x x v U R D 6 b D k < - o 8 B b F F g 8 ",
"D 8 x D A A U Y B - g l 6 I R R R A v B A D D v 3 D A F I Y F 6 , b , b R R R U b B A D D A - B D A D U U x $ x 6 l Y R Y Y b b ",
"U A & 8 g I D x 6 < I A , D R R R I I Y R Y U D < g 6 B U b g = A I < b R R R U D U R U U I x 2 6 l U B h , k U j h U R R Y F I ",
"U D - 8 6 h 6 < + l R D - x I R Y U R R R R R F g 3 6 h 6 3 & < I Y 6 g D Y R U R R R R R U B - 6 8 g 6 , $ A R l 3 B I R Y Y R ",
"I I , , 6 6 - x , l U U , 6 B F I I U U R R Y D x $ 6 6 , g g 6 I R k < x D D D U U R R R I A o 6 6 < < l , b Y Z - 8 D F D I Y ",
"A D % o - < B D , 8 D T x - 6 x v x j k b B B I 6 o & : x D g 6 b U D = 6 j b x k j x B A A b o + - g D b < l I U 2 6 g b c l h ",
"6 v - o A R U D g 6 x F D < 3 6 6 6 6 6 3 g 3 k j O j Y R I v < h D D k , 6 6 6 6 6 6 6 6 g v # - I R U D , 6 Z D Z & 6 6 6 8 6 ",
"< 6 6 g I R U D 8 : 8 v x g $ 6 6 6 6 6 6 3 g 3 g = B Y U D x = 6 x x k % 3 6 6 6 6 6 6 6 6 g - v U R F Z - 6 j b l < - 6 6 6 6 "
};
